<svg width="454" height="304" viewBox="0 0 454 304" fill="none" xmlns="http://www.w3.org/2000/svg">
<path d="M57.0232 37.9278C77.0988 31.3072 122.76 23.5759 144.801 45.6164C172.351 73.1669 185.165 88.5439 187.087 104.562C189.01 120.579 191.572 141.723 194.776 150.693C197.979 159.663 197.979 182.088 204.387 192.339C210.794 202.59 216.56 238.47 231.937 237.829C247.314 237.189 302.415 236.548 342.78 250.003C375.072 260.767 385.708 282.679 386.989 292.29" stroke="black" stroke-width="2" stroke-linecap="round"/>
<circle cx="51.257" cy="39.85" r="5.4071" stroke="black" stroke-width="2"/>
<circle cx="386.989" cy="297.415" r="5.4071" stroke="black" stroke-width="2"/>
<path d="M0.556885 2.36452H3.7039V11.0002H5.53345V2.36452H8.68046V0.818359H0.556885V2.36452Z" fill="#A7A7A7"/>
<path d="M10.167 11.0002H11.9667V3.36381H10.167V11.0002ZM11.0718 2.28001C11.6435 2.28001 12.1109 1.84251 12.1109 1.30557C12.1109 0.763672 11.6435 0.326172 11.0718 0.326172C10.4951 0.326172 10.0278 0.763672 10.0278 1.30557C10.0278 1.84251 10.4951 2.28001 11.0718 2.28001Z" fill="#A7A7A7"/>
<path d="M13.8174 11.0002H15.6171V6.35671C15.6171 5.41708 16.2435 4.78072 17.0191 4.78072C17.7797 4.78072 18.3017 5.29279 18.3017 6.0783V11.0002H20.0667V6.23739C20.0667 5.37731 20.5787 4.78072 21.4488 4.78072C22.1746 4.78072 22.7513 5.20827 22.7513 6.15288V11.0002H24.556V5.87447C24.556 4.16921 23.5716 3.26438 22.1696 3.26438C21.061 3.26438 20.2158 3.81126 19.8777 4.6614H19.7982C19.5049 3.79634 18.7641 3.26438 17.735 3.26438C16.7108 3.26438 15.9452 3.79137 15.627 4.6614H15.5375V3.36381H13.8174V11.0002Z" fill="#A7A7A7"/>
<path d="M26.3818 11.0002H28.1815V3.36381H26.3818V11.0002ZM27.2866 2.28001C27.8584 2.28001 28.3257 1.84251 28.3257 1.30557C28.3257 0.763672 27.8584 0.326172 27.2866 0.326172C26.7099 0.326172 26.2426 0.763672 26.2426 1.30557C26.2426 1.84251 26.7099 2.28001 27.2866 2.28001Z" fill="#A7A7A7"/>
<path d="M36.0677 5.38228C35.8191 4.08967 34.785 3.26438 32.9953 3.26438C31.1558 3.26438 29.9029 4.16921 29.9079 5.58114C29.9029 6.69478 30.589 7.43058 32.0556 7.73384L33.3582 8.00728C34.0592 8.1614 34.3873 8.44478 34.3873 8.87731C34.3873 9.39933 33.8206 9.79208 32.9654 9.79208C32.1402 9.79208 31.6032 9.43413 31.4491 8.74805L29.6941 8.91708C29.9179 10.3191 31.0961 11.1493 32.9704 11.1493C34.8795 11.1493 36.2268 10.16 36.2318 8.71325C36.2268 7.62447 35.5258 6.95827 34.084 6.64506L32.7815 6.36665C32.0059 6.19265 31.6977 5.92418 31.7027 5.48171C31.6977 4.96467 32.2694 4.60671 33.0201 4.60671C33.8504 4.60671 34.2879 5.05913 34.4271 5.56126L36.0677 5.38228Z" fill="#A7A7A7"/>
<path d="M41.0468 11.1493C43.284 11.1493 44.7059 9.57333 44.7059 7.21183C44.7059 4.84535 43.284 3.26438 41.0468 3.26438C38.8095 3.26438 37.3877 4.84535 37.3877 7.21183C37.3877 9.57333 38.8095 11.1493 41.0468 11.1493ZM41.0567 9.70756C39.8188 9.70756 39.2122 8.60387 39.2122 7.20685C39.2122 5.80984 39.8188 4.69123 41.0567 4.69123C42.2747 4.69123 42.8813 5.80984 42.8813 7.20685C42.8813 8.60387 42.2747 9.70756 41.0567 9.70756Z" fill="#A7A7A7"/>
<path d="M48.4308 11.1543C49.629 11.1543 50.3449 10.5925 50.673 9.95117H50.7327V11.0002H52.4628V5.88938C52.4628 3.87092 50.8172 3.26438 49.3605 3.26438C47.7547 3.26438 46.5217 3.98029 46.124 5.37234L47.8044 5.61097C47.9834 5.08896 48.4905 4.64151 49.3704 4.64151C50.2057 4.64151 50.6631 5.06907 50.6631 5.81978V5.84961C50.6631 6.36666 50.1212 6.39151 48.7739 6.53569C47.2923 6.69478 45.8754 7.13725 45.8754 8.85742C45.8754 10.3588 46.9741 11.1543 48.4308 11.1543ZM48.8981 9.83185C48.1474 9.83185 47.6105 9.48881 47.6105 8.82759C47.6105 8.13654 48.2121 7.84819 49.0175 7.73384C49.4898 7.66921 50.4344 7.54989 50.668 7.36097V8.26083C50.668 9.11097 49.982 9.83185 48.8981 9.83185Z" fill="#A7A7A7"/>
<path d="M54.2724 11.0002H56.0722V6.51083C56.0722 5.54137 56.803 4.85529 57.7923 4.85529C58.0956 4.85529 58.4734 4.90998 58.6276 4.95969V3.30415C58.4635 3.27433 58.1801 3.25444 57.9812 3.25444C57.1062 3.25444 56.3754 3.7516 56.097 4.63654H56.0175V3.36381H54.2724V11.0002Z" fill="#A7A7A7"/>
<path d="M61.8703 11.1543C63.0684 11.1543 63.7843 10.5925 64.1125 9.95117H64.1721V11.0002H65.9022V5.88938C65.9022 3.87092 64.2566 3.26438 62.8 3.26438C61.1941 3.26438 59.9612 3.98029 59.5635 5.37234L61.2439 5.61097C61.4228 5.08896 61.9299 4.64151 62.8099 4.64151C63.6451 4.64151 64.1025 5.06907 64.1025 5.81978V5.84961C64.1025 6.36666 63.5606 6.39151 62.2133 6.53569C60.7318 6.69478 59.3149 7.13725 59.3149 8.85742C59.3149 10.3588 60.4136 11.1543 61.8703 11.1543ZM62.3376 9.83185C61.5869 9.83185 61.05 9.48881 61.05 8.82759C61.05 8.13654 61.6515 7.84819 62.4569 7.73384C62.9292 7.66921 63.8738 7.54989 64.1075 7.36097V8.26083C64.1075 9.11097 63.4214 9.83185 62.3376 9.83185Z" fill="#A7A7A7"/>
<path d="M412.086 274.634C411.772 272.372 410.032 271.059 407.775 271.059C405.115 271.059 403.112 272.998 403.112 276.289C403.112 279.575 405.091 281.519 407.775 281.519C410.196 281.519 411.802 279.953 412.086 278.009L410.226 277.999C409.992 279.193 409.018 279.864 407.8 279.864C406.149 279.864 404.966 278.626 404.966 276.289C404.966 273.992 406.14 272.715 407.805 272.715C409.043 272.715 410.012 273.416 410.226 274.634H412.086Z" fill="#A7A7A7"/>
<path d="M413.695 281.38H415.495V276.891C415.495 275.921 416.226 275.235 417.215 275.235C417.518 275.235 417.896 275.29 418.05 275.34V273.684C417.886 273.654 417.603 273.634 417.404 273.634C416.529 273.634 415.798 274.131 415.52 275.016H415.44V273.744H413.695V281.38Z" fill="#A7A7A7"/>
<path d="M421.293 281.534C422.491 281.534 423.207 280.972 423.535 280.331H423.595V281.38H425.325V276.269C425.325 274.251 423.679 273.644 422.223 273.644C420.617 273.644 419.384 274.36 418.986 275.752L420.667 275.991C420.845 275.469 421.353 275.021 422.233 275.021C423.068 275.021 423.525 275.449 423.525 276.2V276.229C423.525 276.747 422.983 276.771 421.636 276.916C420.154 277.075 418.738 277.517 418.738 279.237C418.738 280.739 419.836 281.534 421.293 281.534ZM421.76 280.212C421.01 280.212 420.473 279.869 420.473 279.207C420.473 278.516 421.074 278.228 421.88 278.114C422.352 278.049 423.296 277.93 423.53 277.741V278.641C423.53 279.491 422.844 280.212 421.76 280.212Z" fill="#A7A7A7"/>
<path d="M427.135 281.38H428.934V273.744H427.135V281.38ZM428.039 272.66C428.611 272.66 429.078 272.222 429.078 271.685C429.078 271.144 428.611 270.706 428.039 270.706C427.463 270.706 426.995 271.144 426.995 271.685C426.995 272.222 427.463 272.66 428.039 272.66Z" fill="#A7A7A7"/>
<path d="M434.116 281.529C436.353 281.529 437.775 279.953 437.775 277.592C437.775 275.225 436.353 273.644 434.116 273.644C431.879 273.644 430.457 275.225 430.457 277.592C430.457 279.953 431.879 281.529 434.116 281.529ZM434.126 280.087C432.888 280.087 432.281 278.984 432.281 277.587C432.281 276.19 432.888 275.071 434.126 275.071C435.344 275.071 435.95 276.19 435.95 277.587C435.95 278.984 435.344 280.087 434.126 280.087Z" fill="#A7A7A7"/>
<path d="M445.864 273.744H443.95L442.19 279.416H442.11L440.355 273.744H438.436L441.156 281.38H443.144L445.864 273.744Z" fill="#A7A7A7"/>
<path d="M449.088 281.534C450.286 281.534 451.002 280.972 451.33 280.331H451.39V281.38H453.12V276.269C453.12 274.251 451.474 273.644 450.018 273.644C448.412 273.644 447.179 274.36 446.781 275.752L448.461 275.991C448.64 275.469 449.148 275.021 450.027 275.021C450.863 275.021 451.32 275.449 451.32 276.2V276.229C451.32 276.747 450.778 276.771 449.431 276.916C447.949 277.075 446.532 277.517 446.532 279.237C446.532 280.739 447.631 281.534 449.088 281.534ZM449.555 280.212C448.804 280.212 448.268 279.869 448.268 279.207C448.268 278.516 448.869 278.228 449.674 278.114C450.147 278.049 451.091 277.93 451.325 277.741V278.641C451.325 279.491 450.639 280.212 449.555 280.212Z" fill="#A7A7A7"/>
<path d="M229.097 172.459H233.219C235.55 172.459 236.694 171.271 236.694 169.685C236.694 168.144 235.6 167.239 234.516 167.184V167.085C235.511 166.851 236.296 166.155 236.296 164.917C236.296 163.401 235.202 162.277 232.995 162.277H229.097V172.459ZM230.942 170.918V167.935H232.975C234.114 167.935 234.819 168.631 234.819 169.541C234.819 170.351 234.263 170.918 232.925 170.918H230.942ZM230.942 166.608V163.799H232.806C233.89 163.799 234.452 164.37 234.452 165.156C234.452 166.051 233.726 166.608 232.766 166.608H230.942Z" fill="#C59575"/>
<path d="M240.416 172.613C241.614 172.613 242.33 172.051 242.658 171.41H242.718V172.459H244.448V167.348C244.448 165.33 242.803 164.723 241.346 164.723C239.74 164.723 238.507 165.439 238.109 166.831L239.79 167.07C239.969 166.548 240.476 166.1 241.356 166.1C242.191 166.1 242.648 166.528 242.648 167.279V167.309C242.648 167.826 242.107 167.85 240.759 167.995C239.278 168.154 237.861 168.596 237.861 170.316C237.861 171.818 238.96 172.613 240.416 172.613ZM240.884 171.291C240.133 171.291 239.596 170.948 239.596 170.287C239.596 169.596 240.197 169.307 241.003 169.193C241.475 169.128 242.42 169.009 242.653 168.82V169.72C242.653 170.57 241.967 171.291 240.884 171.291Z" fill="#C59575"/>
<path d="M246.258 172.459H248.058V164.823H246.258V172.459ZM247.163 163.739C247.734 163.739 248.202 163.301 248.202 162.765C248.202 162.223 247.734 161.785 247.163 161.785C246.586 161.785 246.119 162.223 246.119 162.765C246.119 163.301 246.586 163.739 247.163 163.739Z" fill="#C59575"/>
<path d="M251.708 162.277H249.908V172.459H251.708V162.277Z" fill="#C59575"/>
<path d="M256.939 172.608C258.719 172.608 259.942 171.738 260.26 170.411L258.58 170.222C258.336 170.868 257.74 171.206 256.964 171.206C255.801 171.206 255.03 170.441 255.015 169.133H260.335V168.581C260.335 165.902 258.724 164.723 256.845 164.723C254.657 164.723 253.231 166.329 253.231 168.686C253.231 171.082 254.637 172.608 256.939 172.608ZM255.02 167.92C255.075 166.946 255.796 166.125 256.87 166.125C257.904 166.125 258.6 166.881 258.61 167.92H255.02Z" fill="#C59575"/>
<path d="M265.41 172.459H267.254V168.134H271.972V172.459H273.822V162.277H271.972V166.588H267.254V162.277H265.41V172.459Z" fill="#C59575"/>
<path d="M279.129 172.608C280.909 172.608 282.132 171.738 282.45 170.411L280.769 170.222C280.526 170.868 279.929 171.206 279.154 171.206C277.99 171.206 277.22 170.441 277.205 169.133H282.524V168.581C282.524 165.902 280.914 164.723 279.034 164.723C276.847 164.723 275.42 166.329 275.42 168.686C275.42 171.082 276.827 172.608 279.129 172.608ZM277.21 167.92C277.264 166.946 277.985 166.125 279.059 166.125C280.093 166.125 280.789 166.881 280.799 167.92H277.21Z" fill="#C59575"/>
<path d="M284.047 172.459H285.847V167.97C285.847 167 286.577 166.314 287.567 166.314C287.87 166.314 288.248 166.369 288.402 166.419V164.763C288.238 164.733 287.955 164.713 287.756 164.713C286.881 164.713 286.15 165.211 285.871 166.096H285.792V164.823H284.047V172.459Z" fill="#C59575"/>
<path d="M292.614 172.608C294.533 172.608 295.756 171.47 295.886 169.849H294.165C294.011 170.669 293.42 171.142 292.629 171.142C291.506 171.142 290.78 170.202 290.78 168.641C290.78 167.1 291.52 166.175 292.629 166.175C293.494 166.175 294.026 166.732 294.165 167.468H295.886C295.761 165.812 294.469 164.723 292.604 164.723C290.367 164.723 288.955 166.339 288.955 168.671C288.955 170.983 290.332 172.608 292.614 172.608Z" fill="#C59575"/>
<path d="M302.231 169.248C302.231 170.411 301.4 170.988 300.605 170.988C299.74 170.988 299.163 170.376 299.163 169.407V164.823H297.363V169.685C297.363 171.52 298.407 172.559 299.909 172.559C301.052 172.559 301.858 171.957 302.206 171.102H302.285V172.459H304.03V164.823H302.231V169.248Z" fill="#C59575"/>
<path d="M307.681 162.277H305.881V172.459H307.681V162.277Z" fill="#C59575"/>
<path d="M311.729 172.613C312.927 172.613 313.643 172.051 313.971 171.41H314.031V172.459H315.761V167.348C315.761 165.33 314.115 164.723 312.658 164.723C311.053 164.723 309.82 165.439 309.422 166.831L311.102 167.07C311.281 166.548 311.788 166.1 312.668 166.1C313.504 166.1 313.961 166.528 313.961 167.279V167.309C313.961 167.826 313.419 167.85 312.072 167.995C310.59 168.154 309.173 168.596 309.173 170.316C309.173 171.818 310.272 172.613 311.729 172.613ZM312.196 171.291C311.445 171.291 310.908 170.948 310.908 170.287C310.908 169.596 311.51 169.307 312.315 169.193C312.788 169.128 313.732 169.009 313.966 168.82V169.72C313.966 170.57 313.28 171.291 312.196 171.291Z" fill="#C59575"/>
<path d="M319.37 167.985C319.37 166.881 320.036 166.245 320.986 166.245C321.916 166.245 322.472 166.856 322.472 167.875V172.459H324.272V167.597C324.277 165.767 323.233 164.723 321.657 164.723C320.514 164.723 319.728 165.27 319.38 166.12H319.291V164.823H317.57V172.459H319.37V167.985Z" fill="#C59575"/>
<path d="M329.482 172.608C331.262 172.608 332.485 171.738 332.803 170.411L331.123 170.222C330.879 170.868 330.283 171.206 329.507 171.206C328.344 171.206 327.573 170.441 327.558 169.133H332.878V168.581C332.878 165.902 331.267 164.723 329.388 164.723C327.2 164.723 325.773 166.329 325.773 168.686C325.773 171.082 327.18 172.608 329.482 172.608ZM327.563 167.92C327.618 166.946 328.339 166.125 329.413 166.125C330.447 166.125 331.143 166.881 331.153 167.92H327.563Z" fill="#C59575"/>
<path d="M234.5 226.937C234.5 234.014 228.093 242.314 221.686 252.566C215.919 242.955 208.872 234.014 208.872 226.937C208.872 219.86 214.609 214.123 221.686 214.123C228.763 214.123 234.5 219.86 234.5 226.937Z" fill="#C59575"/>
<circle cx="221.686" cy="225.656" r="5.12568" fill="white"/>
</svg>
